<svg width="24" height="24" viewBox="0 0 24 24" fill="none" xmlns="http://www.w3.org/2000/svg">
<circle cx="12" cy="12" r="12" fill="white"/>
<path d="M19.7198 6.70571C19.5115 6.15224 19.1857 5.6514 18.7635 5.23716C18.3485 4.81497 17.847 4.4885 17.2943 4.27953C16.7686 4.07607 16.1707 3.93733 15.3042 3.89815C14.4485 3.85946 14.1739 3.85 12 3.85C9.83148 3.85 9.55284 3.85868 8.70109 3.89787V3.89784L8.69418 3.89816C7.82941 3.93807 7.23153 4.07603 6.70574 4.27951C6.15255 4.4881 5.65143 4.81465 5.23721 5.23647C4.8151 5.65089 4.4883 6.15226 4.27951 6.70573C4.07606 7.23146 3.93733 7.82936 3.89815 8.69577C3.85946 9.5515 3.85 9.82614 3.85 12C3.85 14.173 3.85872 14.4478 3.89816 15.3058L3.89816 15.3058C3.93807 16.1706 4.07603 16.7685 4.27951 17.2943C4.48801 17.8477 4.81458 18.3491 5.23651 18.7636C5.65129 19.1852 6.15288 19.5115 6.70644 19.7198C7.23222 19.924 7.83016 20.0627 8.69503 20.1018C9.5515 20.1405 9.82614 20.15 12 20.15C14.1737 20.15 14.4485 20.1413 15.3058 20.1018L15.3058 20.1018C16.1705 20.0619 16.7684 19.924 17.2943 19.7197C17.847 19.5115 18.3486 19.1858 18.7635 18.7635C19.1852 18.3487 19.5115 17.8471 19.7198 17.2936C19.924 16.7678 20.0627 16.1698 20.1018 15.305C20.1405 14.4485 20.15 14.1739 20.15 12C20.15 9.82697 20.1413 9.55224 20.1018 8.6942L20.1018 8.69418C20.0619 7.8295 19.924 7.23158 19.7198 6.70571ZM19.7198 6.70571C19.7198 6.70597 19.7199 6.70622 19.72 6.70648L19.5796 6.75927M19.7198 6.70571C19.7197 6.70545 19.7196 6.7052 19.7195 6.70494L19.5796 6.75927M19.5796 6.75927C19.3789 6.22545 19.0647 5.74255 18.6575 5.34327M19.5796 6.75927C19.7775 7.26836 19.9127 7.85018 19.952 8.70109L18.6575 5.34327M18.6575 5.34327C18.2575 4.936 17.7738 4.62109 17.2407 4.41964C16.7316 4.22255 16.1498 4.08655 15.2975 4.048C14.4451 4.00945 14.1731 4 12 4C9.82691 4 9.55491 4.00873 8.70182 4.048L18.6575 5.34327ZM6.46605 6.46897L6.46606 6.46898L6.46752 6.46752C6.7324 6.20264 6.98158 6.04155 7.33586 5.90342C7.60304 5.79944 8.01026 5.67273 8.77412 5.63784C9.61426 5.59946 9.86462 5.59145 12 5.59145C14.1354 5.59145 14.3857 5.59946 15.2259 5.63784C15.9897 5.67273 16.397 5.79944 16.6641 5.90342L16.6641 5.90345L16.6666 5.90437C16.9931 6.02478 17.2884 6.21669 17.531 6.46606L17.531 6.46607L17.5325 6.46752C17.7974 6.73242 17.9585 6.98162 18.0966 7.33594C18.2006 7.60312 18.3273 8.01034 18.3622 8.77412C18.4005 9.61426 18.4085 9.86462 18.4085 12C18.4085 14.1354 18.4005 14.3857 18.3622 15.2259C18.3273 15.9897 18.2006 16.397 18.0966 16.6641L18.0966 16.6641L18.0956 16.6666C17.9754 16.9926 17.7833 17.2885 17.534 17.531L17.5325 17.5325C17.2676 17.7974 17.0184 17.9584 16.6641 18.0966C16.397 18.2006 15.9897 18.3273 15.2259 18.3622C14.3857 18.4005 14.1361 18.4085 12 18.4085C9.86389 18.4085 9.61427 18.4005 8.77412 18.3622C8.01026 18.3273 7.60304 18.2006 7.33586 18.0966L7.33586 18.0966L7.33338 18.0956C7.00741 17.9754 6.71152 17.7833 6.46898 17.534L6.46903 17.5339L6.46604 17.531C6.21667 17.2885 6.02464 16.9926 5.90436 16.6666L5.90438 16.6666L5.90342 16.6641C5.79944 16.397 5.67273 15.9897 5.63784 15.2259C5.59946 14.3857 5.59145 14.1354 5.59145 12C5.59145 9.86462 5.59946 9.61426 5.63784 8.77412C5.67273 8.01026 5.79944 7.60304 5.90342 7.33586L5.90345 7.33587L5.90437 7.33336C6.02476 7.00693 6.21667 6.71158 6.46605 6.46897ZM11.0358 14.3277L11.0356 14.3276C10.6916 14.185 10.3835 13.9678 10.1335 13.6918C9.8835 13.4158 9.69779 13.0878 9.58976 12.7314C9.48173 12.375 9.45406 11.9991 9.50875 11.6307C9.56344 11.2624 9.69912 10.9107 9.90603 10.601C10.1129 10.2914 10.3859 10.0315 10.7053 9.84002C11.0248 9.64855 11.3827 9.53028 11.7533 9.49372C12.1239 9.45717 12.498 9.50324 12.8486 9.62862C13.1993 9.754 13.5178 9.95558 13.7812 10.2188L13.7814 10.219C14.1946 10.6308 14.452 11.1733 14.5097 11.7538C14.5673 12.3343 14.4217 12.9169 14.0975 13.4019C13.7734 13.887 13.2909 14.2445 12.7325 14.4133C12.1741 14.5822 11.5744 14.5519 11.0358 14.3277ZM10.369 8.06241C9.8519 8.27659 9.38206 8.59053 8.9863 8.9863C8.18701 9.78558 7.73798 10.8696 7.73798 12C7.73798 13.1304 8.18701 14.2144 8.9863 15.0137C9.78558 15.813 10.8696 16.262 12 16.262C13.1304 16.262 14.2144 15.813 15.0137 15.0137C15.4095 14.6179 15.7234 14.1481 15.9376 13.631C16.1518 13.1139 16.262 12.5597 16.262 12C16.262 11.4403 16.1518 10.8861 15.9376 10.369C15.7234 9.8519 15.4095 9.38206 15.0137 8.9863C14.6179 8.59053 14.1481 8.27659 13.631 8.06241C13.1139 7.84822 12.5597 7.73798 12 7.73798C11.4403 7.73798 10.8861 7.84822 10.369 8.06241ZM17.1269 8.60948C17.2361 8.50645 17.3236 8.38255 17.3841 8.24513C17.4445 8.1077 17.4768 7.95954 17.479 7.80941C17.4812 7.65928 17.4532 7.51024 17.3968 7.37111C17.3404 7.23198 17.2566 7.10559 17.1504 6.99942C17.0442 6.89325 16.9178 6.80946 16.7787 6.75302C16.6396 6.69657 16.4905 6.66861 16.3404 6.6708C16.1903 6.67299 16.0421 6.70528 15.9047 6.76576C15.7673 6.82624 15.6434 6.91367 15.5403 7.02289C15.34 7.2353 15.2303 7.51744 15.2345 7.80941C15.2388 8.10138 15.3567 8.3802 15.5631 8.58668C15.7696 8.79316 16.0484 8.91104 16.3404 8.91529C16.6324 8.91955 16.9145 8.80985 17.1269 8.60948Z" fill="#0876E0" stroke="#0876E0" stroke-width="0.3"/>
</svg>
