<svg width="40" height="40" viewBox="0 0 40 40" fill="none" xmlns="http://www.w3.org/2000/svg">
  <path
    d="M0 20C0 31.0457 8.95431 40 20 40C31.0457 40 40 31.0457 40 20C40 8.95431 31.0457 0 20 0C8.95431 0 0 8.95431 0 20Z"
    fill="white" />
  <path
    d="M14.4165 30H9.45817V14.3958H14.4165V30ZM11.9373 12.2083C10.3332 12.2083 9.1665 11.0417 9.1665 9.4375C9.1665 7.83333 10.479 6.66667 11.9373 6.66667C13.5415 6.66667 14.7082 7.83333 14.7082 9.4375C14.7082 11.0417 13.5415 12.2083 11.9373 12.2083ZM32.4998 30H27.5415V21.5417C27.5415 19.0625 26.5207 18.3333 25.0623 18.3333C23.604 18.3333 22.1457 19.5 22.1457 21.6875V30H17.1873V14.3958H21.854V16.5833C22.2915 15.5625 24.0415 13.9583 26.5207 13.9583C29.2915 13.9583 32.2082 15.5625 32.2082 20.375V30H32.4998Z"
    fill="#0876E0" />
</svg>