<svg width="40" height="40" viewBox="0 0 40 40" fill="none" xmlns="http://www.w3.org/2000/svg">
  <path
    d="M0 20C0 31.0457 8.95431 40 20 40C31.0457 40 40 31.0457 40 20C40 8.95431 31.0457 0 20 0C8.95431 0 0 8.95431 0 20Z"
    fill="white" />
  <path
    d="M9.83317 12.7344C9.83317 12.3958 9.6665 12.0573 9.49984 11.888L6.99984 8.84115V8.33334H14.6665L20.6665 21.7057L25.9998 8.33334H33.3332V8.84115L31.1665 10.8724C30.9998 11.0417 30.8332 11.2109 30.9998 11.5495V26.7839C30.9998 26.9531 30.9998 27.2917 31.1665 27.4609L33.1665 29.4922V30H22.6665V29.4922L24.8332 27.2917C24.9998 27.1224 24.9998 26.9531 24.9998 26.6146V14.2578L18.9998 29.6615H18.3332L11.3332 14.2578V24.5833C11.3332 25.0912 11.4998 25.4297 11.6665 25.7682L14.4998 29.1536V29.6615H6.6665V29.1536L9.49984 25.7682C9.83317 25.4297 9.99984 25.0912 9.83317 24.5833V12.7344Z"
    fill="#0876E0" />
</svg>