<svg width="25" height="25" viewBox="0 0 25 25" fill="none" xmlns="http://www.w3.org/2000/svg">
<path d="M0.84375 12.2832C0.84375 17.4062 4.05475 21.7802 8.57375 23.5012C8.46375 22.5642 8.34675 21.0192 8.59875 19.9352C8.81575 19.0032 9.99975 13.9972 9.99975 13.9972C9.99975 13.9972 9.64275 13.2822 9.64275 12.2232C9.64275 10.5632 10.6047 9.3232 11.8038 9.3232C12.8237 9.3232 13.3158 10.0882 13.3158 11.0052C13.3158 12.0302 12.6628 13.5622 12.3258 14.9832C12.0448 16.1722 12.9228 17.1422 14.0948 17.1422C16.2178 17.1422 17.8507 14.9032 17.8507 11.6712C17.8507 8.8102 15.7948 6.8112 12.8597 6.8112C9.46175 6.8112 7.46675 9.3602 7.46675 11.9952C7.46675 13.0222 7.86175 14.1222 8.35575 14.7212C8.39787 14.7664 8.42762 14.8218 8.44216 14.8818C8.4567 14.9419 8.45552 15.0047 8.43875 15.0642C8.34775 15.4422 8.14575 16.2532 8.10675 16.4192C8.05375 16.6372 7.93375 16.6842 7.70675 16.5782C6.21475 15.8842 5.28275 13.7032 5.28275 11.9512C5.28275 8.1822 8.01975 4.7222 13.1748 4.7222C17.3188 4.7222 20.5397 7.6752 20.5397 11.6212C20.5397 15.7382 17.9447 19.0522 14.3407 19.0522C13.1297 19.0522 11.9928 18.4222 11.6027 17.6792C11.6027 17.6792 11.0038 19.9612 10.8588 20.5192C10.5768 21.6032 9.79475 22.9752 9.30975 23.7542C10.4277 24.0982 11.6138 24.2832 12.8438 24.2832C19.4707 24.2832 24.8438 18.9102 24.8438 12.2832C24.8438 5.6562 19.4707 0.283203 12.8438 0.283203C6.21675 0.283203 0.84375 5.6562 0.84375 12.2832Z" fill="white"/>
</svg>
