<svg width="40" height="40" viewBox="0 0 40 40" fill="none" xmlns="http://www.w3.org/2000/svg">
  <path
    d="M20 0C31.0457 0 40 8.95431 40 20C40 31.0457 31.0457 40 20 40C8.95431 40 0 31.0457 0 20C0 8.95431 8.95431 0 20 0ZM21.3271 18.6357L21.3223 24.7354C21.3221 26.3659 20.26 27.7481 18.7881 28.2344C18.3609 28.3755 17.8993 28.4424 17.4189 28.416C16.8059 28.3823 16.2317 28.1971 15.7324 27.8984C14.6696 27.2628 13.9483 26.1101 13.9287 24.791C13.898 22.7293 15.5648 21.048 17.625 21.0479C18.0317 21.0479 18.4224 21.1148 18.7881 21.2354V17.0967C18.4025 17.0396 18.0101 17.0098 17.6133 17.0098C15.3581 17.0098 13.2489 17.9479 11.7412 19.6367C10.6018 20.9129 9.918 22.5408 9.8125 24.248C9.67433 26.491 10.4953 28.6232 12.0869 30.1963C12.3208 30.4272 12.5664 30.6421 12.8232 30.8398C14.1878 31.8899 15.8563 32.459 17.6133 32.459C18.0101 32.459 18.4025 32.4292 18.7881 32.3721C20.4295 32.1289 21.9445 31.3778 23.1396 30.1963C24.6081 28.7448 25.4189 26.8176 25.4277 24.7666L25.4072 15.6582C26.1078 16.1987 26.8741 16.646 27.6963 16.9932C28.9748 17.5326 30.3304 17.8061 31.7256 17.8057V13.748C31.7266 13.749 31.7148 13.749 31.7139 13.749C30.2874 13.749 28.971 13.2767 27.9141 12.4795C26.7019 11.5655 25.831 10.2248 25.5234 8.67969C25.4473 8.29789 25.4062 7.90377 25.4023 7.5H21.3271V18.6357Z"
    fill="white" />
</svg>