<svg width="40" height="40" viewBox="0 0 40 40" fill="none" xmlns="http://www.w3.org/2000/svg">
  <path
    d="M0 20C0 31.0457 8.95431 40 20 40C31.0457 40 40 31.0457 40 20C40 8.95431 31.0457 0 20 0C8.95431 0 0 8.95431 0 20Z"
    fill="white" />
  <path
    d="M22.8946 17.5077L30.9605 8.33333H29.0492L22.0455 16.2993L16.4518 8.33333H10L18.4589 20.3793L10 30H11.9115L19.3075 21.5877L25.2149 30H31.6667L22.8941 17.5077H22.8946ZM20.2766 20.4854L19.4195 19.2859L12.6002 9.74132H15.5361L21.0394 17.4441L21.8964 18.6436L29.0501 28.656H26.1141L20.2766 20.4859V20.4854Z"
    fill="#0876E0" />
</svg>