<svg width="24" height="25" viewBox="0 0 24 25" fill="none" xmlns="http://www.w3.org/2000/svg">
<path d="M22.7234 0.683594H1.2766C0.571404 0.683594 0 1.25525 0 1.96019V23.407C0 24.1119 0.571404 24.6836 1.2766 24.6836H22.7234C23.4286 24.6836 24 24.1119 24 23.407V1.96019C24 1.25525 23.4286 0.683594 22.7234 0.683594ZM4.91234 15.9336C4.776 14.8459 4.85847 13.3127 4.99379 12.7127C5.14366 12.0478 5.5126 11.8824 6.14298 12.1352C7.38868 12.6341 8.63055 13.1411 9.87191 13.6495C10.2641 13.8103 10.4367 14.0886 10.4193 14.493C10.403 14.8765 10.2128 15.1191 9.80579 15.2488C8.49779 15.6655 7.19055 16.0834 5.87923 16.4886C5.35762 16.6497 5.02902 16.4723 4.91234 15.9336ZM11.9668 21.3532C11.9614 21.8792 11.6913 22.1587 11.1702 22.1077C10.0077 21.9928 8.93464 21.5965 7.97234 20.9365C7.53626 20.6373 7.50102 20.2528 7.8383 19.8463C8.73038 18.7727 9.6314 17.706 10.5352 16.6418C10.7883 16.3438 11.1271 16.2775 11.4911 16.4225C11.832 16.5576 11.989 16.7935 11.9911 17.1953C11.9946 17.8883 11.9921 18.5812 11.9921 19.2744C11.9844 19.2744 11.9765 19.2744 11.9689 19.2744C11.9689 19.9671 11.9747 20.6603 11.9668 21.3532ZM11.9653 11.7027C11.8054 12.281 11.2305 12.4502 10.7747 12.0558C10.5906 11.8962 10.4339 11.6942 10.3024 11.4877C9.04264 9.50896 7.79055 7.52564 6.53872 5.54257C6.17694 4.96964 6.24894 4.62444 6.85583 4.31653C8.05634 3.70683 9.33345 3.33866 10.6803 3.25798C11.3226 3.21942 11.5481 3.43491 11.5925 4.07066C11.7503 6.33789 11.8999 8.60589 12.0585 10.9558C12.036 11.1537 12.0378 11.4387 11.9653 11.7027ZM13.5003 12.5432C14.3214 11.43 15.1371 10.3124 15.9643 9.20359C16.3185 8.7287 16.7037 8.68274 17.1416 9.08972C17.9556 9.84547 18.5627 10.7524 18.9518 11.7928C19.1617 12.3558 18.9761 12.6846 18.3955 12.834C17.0765 13.1733 15.7534 13.4986 14.4319 13.8272C14.3523 13.8471 14.2693 13.8517 14.2031 13.8611C13.8439 13.8507 13.5986 13.6801 13.441 13.3873C13.286 13.0985 13.3016 12.813 13.5003 12.5432ZM18.9649 18.0757C18.516 18.9611 17.9076 19.7248 17.162 20.3781C17.0474 20.4793 16.9136 20.5661 16.7755 20.6319C16.451 20.7869 16.1494 20.7226 15.9603 20.4226C15.1769 19.1838 14.4015 17.9396 13.6361 16.689C13.4392 16.3671 13.5391 16.0472 13.7683 15.773C13.9874 15.5102 14.2729 15.4114 14.602 15.5207C15.9544 15.9675 17.3037 16.4212 18.6541 16.8731C18.9623 16.9758 19.1382 17.1777 19.1574 17.5262C19.0943 17.7103 19.0514 17.9036 18.9649 18.0757Z" fill="white"/>
</svg>
