<svg width="24" height="25" viewBox="0 0 24 25" fill="none" xmlns="http://www.w3.org/2000/svg">
  <g clip-path="url(#clip0_787_3248)">
    <path
      d="M12 24.5C18.6274 24.5 24 19.1274 24 12.5C24 5.87258 18.6274 0.5 12 0.5C5.37258 0.5 0 5.87258 0 12.5C0 19.1274 5.37258 24.5 12 24.5Z"
      fill="white" />
    <path
      d="M15.9268 7.98633H8.07315C7.7593 7.98633 7.44852 8.04817 7.15858 8.16833C6.86863 8.28848 6.60521 8.46459 6.38335 8.68659C6.1615 8.90859 5.98556 9.17214 5.8656 9.46216C5.74564 9.75218 5.684 10.063 5.6842 10.3769V14.6242C5.684 14.9381 5.74564 15.2489 5.8656 15.5389C5.98556 15.8289 6.1615 16.0925 6.38335 16.3145C6.60521 16.5365 6.86863 16.7126 7.15858 16.8328C7.44852 16.9529 7.7593 17.0147 8.07315 17.0147H15.9268C16.2407 17.0147 16.5515 16.9529 16.8414 16.8328C17.1314 16.7126 17.3948 16.5365 17.6166 16.3145C17.8385 16.0925 18.0144 15.8289 18.1344 15.5389C18.2544 15.2489 18.316 14.9381 18.3158 14.6242V10.3769C18.316 10.063 18.2544 9.75218 18.1344 9.46216C18.0144 9.17214 17.8385 8.90859 17.6166 8.68659C17.3948 8.46459 17.1314 8.28848 16.8414 8.16833C16.5515 8.04817 16.2407 7.98633 15.9268 7.98633ZM10.3358 14.4363V10.5647L13.6642 12.5005L10.3358 14.4363Z"
      fill="#0876E0" />
  </g>
  <defs>
    <clipPath id="clip0_787_3248">
      <rect width="24" height="24" fill="white" transform="translate(0 0.5)" />
    </clipPath>
  </defs>
</svg>
  