<svg width="162" height="55" viewBox="0 0 162 55" fill="none" xmlns="http://www.w3.org/2000/svg">
<path d="M123.525 44.1963H124.915V39.695L128.187 36.6318L133.842 44.1963H135.722L129.276 35.6304L134.886 30.4496H132.752L124.915 37.7678V30.4463H123.525V44.1963ZM137.572 44.1963H148V42.7221H138.961V37.7875H146.354V36.3134H138.961V31.9237H147.809V30.4496H137.572V44.1963ZM154.686 44.1963H156.075V38.6346L162 30.4463H160.183L155.381 37.1604L150.578 30.4463H148.761L154.686 38.6346V44.1963Z" fill="#0C2935"/>
<path d="M107.724 39.8228C107.867 39.572 108.049 39.3545 108.265 39.1705C108.484 38.9866 108.72 38.8293 108.976 38.7022C109.231 38.5751 109.47 38.4647 109.693 38.3777L110.138 38.1871L110.569 38.7658C111.419 39.873 112.169 40.7561 112.817 41.4151L113.328 41.937L112.817 42.2046C112.372 42.3953 111.937 42.5558 111.519 42.6796C111.1 42.8067 110.649 42.8703 110.171 42.8669C109.895 42.8669 109.6 42.8335 109.288 42.7666C108.976 42.6997 108.687 42.5859 108.428 42.4153C108.169 42.2447 107.95 42.024 107.774 41.7463C107.598 41.4687 107.512 41.1275 107.512 40.716C107.512 40.3715 107.581 40.0737 107.724 39.8228ZM119.476 45.1784V42.8268L119.061 42.8234C118.689 42.8234 118.284 42.7666 117.842 42.6562C117.401 42.5458 117.016 42.3417 116.687 42.044L117.069 41.6225C117.474 41.1375 117.836 40.6458 118.161 40.154C118.487 39.6623 118.792 39.1271 119.077 38.5483L119.204 38.2975L117.434 37.1735L117.308 37.4244C117.192 37.6552 117.056 37.9027 116.903 38.1637C116.75 38.4246 116.581 38.6955 116.402 38.9698C116.222 39.2475 116.03 39.5118 115.827 39.766C115.625 40.0202 115.413 40.2544 115.19 40.4584L115.047 40.5922L114.682 40.2243C114.31 39.8496 113.939 39.4448 113.567 39.0066C113.195 38.5684 112.833 38.1302 112.485 37.692L112.342 37.518L112.518 37.4411C112.803 37.314 113.095 37.1501 113.387 36.9527C113.68 36.7554 113.945 36.5112 114.184 36.2235C114.423 35.9358 114.616 35.5879 114.765 35.1865C114.915 34.7817 114.988 34.3167 114.988 33.7916C114.988 33.1995 114.888 32.691 114.685 32.2695C114.483 31.8447 114.214 31.4968 113.882 31.2258C113.55 30.9549 113.172 30.7575 112.75 30.6337C112.332 30.51 111.897 30.4464 111.452 30.4464C111.037 30.4431 110.629 30.51 110.224 30.6438C109.819 30.7776 109.464 30.9816 109.155 31.2559C108.846 31.5302 108.597 31.8748 108.405 32.2829C108.212 32.6943 108.119 33.1694 108.119 33.7079C108.119 34.0424 108.162 34.397 108.245 34.7683C108.332 35.143 108.491 35.5143 108.723 35.889L108.996 36.3339L108.501 36.5045C108.096 36.645 107.704 36.8423 107.322 37.0966C106.941 37.3508 106.599 37.6585 106.303 38.0165C106.005 38.3744 105.766 38.7859 105.58 39.2475C105.394 39.7091 105.301 40.2176 105.301 40.7695C105.301 41.4754 105.417 42.0975 105.653 42.6395C105.885 43.1814 106.217 43.633 106.642 44.0009C107.067 44.3689 107.578 44.6499 108.172 44.8439C108.767 45.0379 109.427 45.1383 110.148 45.1416C110.562 45.1416 110.948 45.1216 111.303 45.0781C111.658 45.0346 112.007 44.9643 112.345 44.8707C112.684 44.777 113.019 44.6499 113.348 44.4893C113.676 44.3321 114.028 44.1414 114.4 43.924L114.941 43.5025C115.134 43.6831 115.369 43.8705 115.652 44.0645C115.934 44.2585 116.252 44.4358 116.608 44.5997C116.963 44.7636 117.351 44.8974 117.769 45.0078C118.188 45.1182 118.626 45.1751 119.084 45.1784H119.476ZM111.114 35.7819L110.828 35.4541C110.659 35.2233 110.489 34.959 110.317 34.6613C110.147 34.3669 110.061 34.0491 110.061 33.718C110.061 33.1794 110.194 32.7612 110.46 32.4669C110.725 32.1725 111.08 32.0253 111.528 32.0287C111.973 32.0287 112.338 32.1725 112.621 32.4568C112.903 32.7412 113.042 33.1459 113.042 33.6745C113.042 33.9454 112.996 34.1829 112.906 34.387C112.817 34.591 112.7 34.7784 112.554 34.9456C112.408 35.1129 112.246 35.2534 112.06 35.3671C111.874 35.4809 111.685 35.5779 111.495 35.6548L111.114 35.7819Z" fill="#3F4042"/>
<path d="M48.5996 44.8266H59.1021V43.3223H49.9975V30.7947H48.6029V44.8266H48.5996ZM61.9574 35.3782C62.202 34.688 62.549 34.0849 63.005 33.5623C63.4611 33.0396 64.0163 32.6308 64.6772 32.3259C65.3382 32.021 66.085 31.8736 66.9211 31.8736C67.7572 31.8736 68.5041 32.0244 69.1651 32.3259C69.826 32.6275 70.3845 33.0396 70.8373 33.5623C71.2933 34.0849 71.6403 34.688 71.8849 35.3782C72.1294 36.0684 72.2484 36.8022 72.2484 37.5896C72.2484 38.6584 72.103 39.573 71.8122 40.3403C71.5213 41.1042 71.1314 41.7375 70.639 42.23C70.1466 42.7259 69.5782 43.0877 68.9337 43.3189C68.2893 43.5501 67.6184 43.6674 66.9178 43.6674C66.2106 43.6674 65.5331 43.5501 64.8887 43.3189C64.2443 43.0877 63.6792 42.7259 63.1901 42.23C62.7043 41.7341 62.3143 41.1042 62.0235 40.3403C61.7327 39.5764 61.5873 38.6584 61.5873 37.5896C61.5906 36.8055 61.7129 36.0684 61.9574 35.3782ZM60.7512 41.1411C61.1411 42.0558 61.6567 42.8096 62.2912 43.4094C62.9257 44.0091 63.6461 44.4514 64.4558 44.7429C65.2655 45.0344 66.0883 45.1784 66.9211 45.1784C67.7539 45.1784 68.5801 45.0344 69.3865 44.7429C70.1928 44.4514 70.9166 44.0091 71.5511 43.4094C72.1856 42.813 72.6978 42.0558 73.0911 41.1411C73.4811 40.2264 73.6793 39.1475 73.6793 37.8978C73.6793 36.7285 73.5108 35.6831 73.1704 34.7617C72.8333 33.8403 72.3641 33.063 71.7659 32.4264C71.1677 31.7898 70.4572 31.3007 69.631 30.9589C68.8048 30.6172 67.9026 30.4463 66.9178 30.4463C65.933 30.4463 65.0308 30.6172 64.2046 30.9589C63.3784 31.3007 62.6679 31.7898 62.0698 32.4264C61.4716 33.063 61.0056 33.8403 60.6652 34.7617C60.3282 35.6831 60.1563 36.7285 60.1563 37.8978C60.1629 39.1475 60.3579 40.2264 60.7512 41.1411ZM86.6703 40.3671C86.1944 41.4493 85.5599 42.2668 84.7668 42.8264C83.9736 43.3859 83.002 43.6674 81.8487 43.6674C80.9696 43.6674 80.2029 43.5266 79.5486 43.2418C78.8942 42.957 78.3423 42.565 77.8995 42.0658C77.4567 41.5632 77.1229 40.9736 76.9015 40.2901C76.6801 39.6099 76.5677 38.8627 76.5677 38.0519C76.5677 36.045 77.0105 34.5138 77.8995 33.4584C78.7885 32.403 80.0608 31.877 81.7231 31.877C82.8236 31.877 83.7985 32.1349 84.6511 32.6476C85.5037 33.1635 86.1283 33.9911 86.5315 35.137L87.7377 34.4602C87.4833 33.7532 87.1429 33.1434 86.7133 32.6375C86.2837 32.1282 85.8045 31.7128 85.2691 31.3844C84.7337 31.0561 84.162 30.8182 83.5473 30.6708C82.9326 30.5233 82.3213 30.4496 81.7066 30.4496C80.735 30.4496 79.846 30.6071 79.043 30.9221C78.2399 31.237 77.5459 31.7061 76.9643 32.3326C76.3826 32.9558 75.9332 33.7298 75.6159 34.6478C75.2987 35.5659 75.14 36.6313 75.14 37.8408C75.14 38.856 75.2722 39.8109 75.5366 40.7055C75.801 41.6001 76.2042 42.3774 76.7495 43.0408C77.2947 43.7042 77.9788 44.2235 78.805 44.6021C79.6312 44.9808 80.6028 45.1717 81.7231 45.1717C83.1309 45.1717 84.357 44.8568 85.4046 44.2269C86.4522 43.597 87.2883 42.555 87.9096 41.1009L86.6703 40.3671ZM90.018 44.8266H91.4126V40.2331L94.6975 37.1071L100.375 44.8266H102.262L95.7914 36.0852L101.423 30.7981H99.2812L91.4126 38.2664V30.7947H90.018V44.8266Z" fill="#0C2935"/>
<path d="M124.987 53.0974C124.796 53.0231 124.634 52.917 124.503 52.7791C124.371 52.6447 124.269 52.4785 124.197 52.284C124.124 52.0894 124.088 51.8737 124.088 51.6403C124.088 51.4599 124.118 51.276 124.174 51.0886C124.233 50.9012 124.322 50.735 124.444 50.5829C124.565 50.4308 124.727 50.307 124.921 50.208C125.115 50.109 125.349 50.0595 125.622 50.0595C125.895 50.0595 126.128 50.109 126.323 50.208C126.517 50.307 126.675 50.4308 126.8 50.5829C126.922 50.735 127.01 50.9012 127.066 51.0886C127.122 51.276 127.149 51.4599 127.149 51.6403C127.149 51.8772 127.112 52.093 127.043 52.284C126.974 52.4785 126.872 52.6411 126.741 52.7791C126.609 52.9135 126.448 53.0195 126.257 53.0974C126.066 53.1716 125.852 53.2105 125.618 53.2105C125.391 53.2141 125.177 53.1752 124.987 53.0974ZM126.474 53.5889C126.727 53.4934 126.948 53.3555 127.135 53.1716C127.32 52.9877 127.465 52.7614 127.567 52.4926C127.669 52.2238 127.718 51.9162 127.718 51.5696C127.718 51.2866 127.669 51.025 127.573 50.7774C127.478 50.5298 127.336 50.3176 127.152 50.1373C126.968 49.9569 126.747 49.8119 126.49 49.7058C126.234 49.5997 125.944 49.5467 125.625 49.5467C125.306 49.5467 125.016 49.5997 124.756 49.7058C124.496 49.8119 124.276 49.9534 124.095 50.1373C123.914 50.3176 123.776 50.5334 123.673 50.7774C123.575 51.025 123.525 51.2866 123.525 51.5696C123.525 51.9162 123.575 52.2238 123.677 52.4926C123.779 52.7614 123.924 52.9877 124.108 53.1716C124.292 53.3555 124.516 53.4934 124.773 53.5889C125.029 53.6844 125.312 53.7304 125.625 53.7304C125.938 53.7339 126.221 53.6844 126.474 53.5889ZM128.426 48.1285V52.8746C128.426 52.8993 128.422 52.9488 128.419 53.016C128.412 53.0867 128.409 53.161 128.406 53.2388C128.399 53.3166 128.396 53.3909 128.393 53.4616C128.389 53.5323 128.386 53.5819 128.386 53.6137H128.824L128.962 52.9948C129.097 53.115 129.225 53.2211 129.344 53.3166C129.465 53.4086 129.59 53.4864 129.722 53.5465C129.854 53.6066 129.995 53.6526 130.15 53.6844C130.301 53.7162 130.482 53.7339 130.686 53.7339C131.042 53.7339 131.348 53.6703 131.605 53.5359C131.858 53.405 132.069 53.2388 132.23 53.0372C132.391 52.8357 132.51 52.6164 132.588 52.3724C132.664 52.1319 132.704 51.8985 132.704 51.6721C132.704 51.4458 132.667 51.2053 132.595 50.9542C132.523 50.7031 132.407 50.4732 132.243 50.2646C132.082 50.0559 131.868 49.8827 131.598 49.7483C131.331 49.6139 131.006 49.5431 130.614 49.5431C130.423 49.5431 130.255 49.5608 130.11 49.5927C129.966 49.6245 129.827 49.6705 129.702 49.727C129.577 49.7836 129.456 49.8544 129.34 49.9357C129.225 50.017 129.107 50.1055 128.985 50.208V48.125H128.426V48.1285ZM128.992 50.8446C129.074 50.7491 129.166 50.6536 129.268 50.5617C129.37 50.4697 129.485 50.3848 129.617 50.3141C129.745 50.2398 129.89 50.1833 130.051 50.1373C130.209 50.0913 130.387 50.0701 130.584 50.0701C130.769 50.0701 130.956 50.0984 131.144 50.155C131.331 50.2115 131.499 50.3035 131.644 50.4308C131.789 50.5581 131.911 50.7279 132.003 50.933C132.095 51.1381 132.141 51.3927 132.141 51.6934C132.141 51.8985 132.105 52.093 132.032 52.2769C131.96 52.4608 131.858 52.6235 131.723 52.7614C131.588 52.8993 131.424 53.0089 131.229 53.0938C131.035 53.1787 130.815 53.2176 130.568 53.2176C130.417 53.2176 130.262 53.1928 130.114 53.1469C129.962 53.1009 129.821 53.0337 129.683 52.9559C129.544 52.8745 129.419 52.7861 129.301 52.6836C129.182 52.5846 129.08 52.482 128.992 52.383V50.8446ZM133.454 48.8288H134.109V48.1285H133.454V48.8288ZM132.71 54.9399C132.756 54.9505 132.816 54.9611 132.885 54.9788C132.954 54.9929 133.036 55 133.128 55C133.477 55 133.721 54.9081 133.859 54.7277C133.997 54.5473 134.066 54.2892 134.066 53.9567V49.6634H133.503V53.8223C133.503 54.0593 133.47 54.229 133.405 54.3281C133.339 54.4271 133.22 54.4801 133.049 54.4801C133 54.4801 132.937 54.4731 132.868 54.4625C132.799 54.4483 132.746 54.4342 132.707 54.4129V54.9399H132.71ZM135.399 51.2442C135.478 50.8835 135.636 50.597 135.873 50.3848C136.11 50.1726 136.436 50.0665 136.853 50.0665C137.067 50.0665 137.258 50.0984 137.429 50.162C137.601 50.2257 137.749 50.3106 137.874 50.4131C137.999 50.5192 138.101 50.643 138.18 50.788C138.259 50.933 138.311 51.0851 138.341 51.2442H135.399ZM138.407 52.4431C138.351 52.5174 138.285 52.6022 138.213 52.6906C138.14 52.7791 138.045 52.8639 137.933 52.9417C137.821 53.0195 137.686 53.0832 137.522 53.1327C137.36 53.1822 137.16 53.207 136.923 53.207C136.686 53.207 136.475 53.1681 136.291 53.0867C136.106 53.0054 135.945 52.8993 135.814 52.7614C135.682 52.6235 135.58 52.4714 135.504 52.2981C135.429 52.1248 135.386 51.9444 135.373 51.757H138.946C138.95 51.3645 138.897 51.0285 138.782 50.7491C138.667 50.4697 138.512 50.2398 138.315 50.063C138.117 49.8827 137.89 49.7518 137.627 49.6669C137.367 49.582 137.087 49.5396 136.798 49.5396C136.521 49.5396 136.258 49.5891 136.014 49.6881C135.771 49.7872 135.56 49.9251 135.382 50.1055C135.205 50.2858 135.063 50.5051 134.961 50.7632C134.859 51.0214 134.81 51.3043 134.81 51.6155C134.81 51.9162 134.859 52.1991 134.961 52.4572C135.06 52.7154 135.201 52.9417 135.382 53.1292C135.563 53.3166 135.781 53.4652 136.034 53.5712C136.287 53.6773 136.567 53.7304 136.873 53.7304C137.183 53.7304 137.443 53.7021 137.65 53.6455C137.857 53.5889 138.035 53.5147 138.183 53.4227C138.328 53.3308 138.453 53.2317 138.555 53.1186C138.657 53.0054 138.756 52.8958 138.848 52.7897L138.407 52.4431ZM143.422 50.6253C143.353 50.498 143.264 50.3707 143.162 50.2398C143.057 50.109 142.932 49.9923 142.78 49.8933C142.629 49.7942 142.451 49.7094 142.244 49.6457C142.037 49.582 141.796 49.5467 141.523 49.5467C141.24 49.5467 140.974 49.5927 140.72 49.6811C140.467 49.773 140.246 49.9039 140.056 50.0772C139.865 50.2504 139.717 50.4662 139.605 50.7314C139.493 50.9931 139.437 51.2937 139.437 51.6297C139.437 51.9268 139.486 52.2026 139.582 52.4608C139.68 52.7154 139.822 52.9382 140.006 53.1292C140.19 53.3166 140.414 53.4651 140.674 53.5748C140.934 53.6844 141.227 53.7375 141.556 53.7375C141.839 53.7375 142.086 53.7056 142.3 53.6455C142.514 53.5854 142.698 53.5041 142.853 53.398C143.007 53.2919 143.142 53.1716 143.251 53.0372C143.363 52.9028 143.458 52.7578 143.537 52.6058L143.05 52.3122C142.951 52.4926 142.849 52.6411 142.741 52.7578C142.632 52.8745 142.514 52.9665 142.389 53.0337C142.264 53.1009 142.132 53.1504 141.997 53.1787C141.862 53.207 141.717 53.2211 141.569 53.2211C141.346 53.2211 141.138 53.1822 140.947 53.1044C140.756 53.0266 140.589 52.9205 140.45 52.7826C140.312 52.6482 140.2 52.4855 140.121 52.2981C140.042 52.1107 140 51.9126 140 51.6934C140 51.4069 140.042 51.1593 140.131 50.9542C140.22 50.7491 140.335 50.5793 140.48 50.4485C140.625 50.3176 140.786 50.2222 140.967 50.162C141.148 50.1019 141.332 50.0701 141.523 50.0701C141.75 50.0701 141.944 50.1019 142.102 50.1656C142.264 50.2292 142.399 50.3035 142.507 50.3954C142.619 50.4874 142.708 50.5793 142.77 50.6784C142.836 50.7774 142.889 50.8623 142.932 50.9295L143.422 50.6253ZM146.588 49.6669H145.143V48.3549H144.58V49.6669H143.807V50.1868H144.58V52.6305C144.58 52.7119 144.587 52.8144 144.597 52.9347C144.61 53.0584 144.653 53.1787 144.725 53.2954C144.798 53.4156 144.916 53.5147 145.081 53.5995C145.242 53.6844 145.472 53.7269 145.768 53.7269C145.884 53.7269 146.015 53.7162 146.16 53.695C146.305 53.6738 146.483 53.6455 146.687 53.6101V53.0832C146.535 53.1186 146.397 53.1469 146.272 53.1681C146.15 53.1893 146.022 53.2035 145.887 53.2035C145.601 53.2035 145.403 53.1504 145.298 53.0443C145.193 52.9382 145.143 52.7791 145.143 52.5598V50.1762H146.588V49.6669ZM147.19 48.8288H147.835V48.1285H147.19V48.8288ZM147.24 53.6137H147.802V49.6669H147.24V53.6137ZM150.234 53.6137H150.797L152.66 49.6669H152.054L150.511 52.9488L148.98 49.6669H148.368L150.234 53.6137ZM153.387 51.2442C153.466 50.8835 153.624 50.597 153.861 50.3848C154.098 50.1726 154.424 50.0665 154.841 50.0665C155.055 50.0665 155.246 50.0984 155.417 50.162C155.588 50.2257 155.737 50.3106 155.862 50.4131C155.987 50.5192 156.089 50.643 156.168 50.788C156.247 50.933 156.299 51.0851 156.326 51.2442H153.387ZM156.395 52.4431C156.339 52.5174 156.273 52.6022 156.201 52.6906C156.125 52.7826 156.033 52.8639 155.924 52.9417C155.816 53.0195 155.677 53.0832 155.513 53.1327C155.352 53.1822 155.151 53.207 154.914 53.207C154.677 53.207 154.466 53.1681 154.282 53.0867C154.098 53.0054 153.936 52.8993 153.805 52.7614C153.673 52.627 153.571 52.4714 153.495 52.2981C153.42 52.1248 153.377 51.9444 153.364 51.757H156.938C156.941 51.3645 156.888 51.0285 156.773 50.7491C156.661 50.4697 156.503 50.2398 156.309 50.063C156.112 49.8827 155.881 49.7518 155.621 49.6669C155.358 49.582 155.082 49.5396 154.792 49.5396C154.512 49.5396 154.252 49.5891 154.009 49.6881C153.765 49.7872 153.555 49.9251 153.377 50.1055C153.199 50.2858 153.058 50.5051 152.956 50.7632C152.854 51.0214 152.801 51.3043 152.801 51.6155C152.801 51.9162 152.85 52.1991 152.949 52.4572C153.048 52.7154 153.189 52.9417 153.37 53.1292C153.551 53.3166 153.769 53.4652 154.019 53.5712C154.272 53.6773 154.552 53.7304 154.858 53.7304C155.167 53.7304 155.427 53.7021 155.638 53.6455C155.845 53.5889 156.023 53.5147 156.171 53.4227C156.316 53.3308 156.441 53.2317 156.543 53.1186C156.645 53.0054 156.744 52.8958 156.836 52.7897L156.395 52.4431Z" fill="#0C2935"/>
<path d="M103.275 53.0357H104.256V51.5096L105.325 50.6389L107.391 53.0357H108.675L106.037 50.069L108.433 48.125H107.038L104.256 50.4141V48.125H103.275V53.0357ZM109.473 53.0357H114.055V52.2125H110.453V50.9144H113.483V50.0912H110.453V48.9514H113.974V48.1282H109.473V53.0357ZM117.056 53.0357H118.036V51.0695L120.488 48.125H119.279L117.546 50.2052L115.807 48.125H114.604L117.056 51.0695V53.0357Z" fill="#0876E0"/>
<path d="M103.275 53.0357H104.256V51.5096L105.325 50.6389L107.391 53.0357H108.675L106.037 50.069L108.433 48.125H107.038L104.256 50.4141V48.125H103.275V53.0357ZM109.473 53.0357H114.055V52.2125H110.453V50.9144H113.483V50.0912H110.453V48.9514H113.974V48.1282H109.473V53.0357ZM117.056 53.0357H118.036V51.0695L120.488 48.125H119.279L117.546 50.2052L115.807 48.125H114.604L117.056 51.0695V53.0357Z" stroke="#0876E0" stroke-width="0.253496"/>
<path d="M47.5879 52.5256C47.6946 52.654 47.8213 52.7893 47.9613 52.9351C48.1013 53.0808 48.2781 53.2162 48.4881 53.3376C48.6981 53.4626 48.9515 53.5632 49.2483 53.6465C49.545 53.7263 49.9018 53.768 50.3185 53.768C50.7553 53.768 51.1354 53.7229 51.4555 53.6396C51.7755 53.5528 52.0423 53.4348 52.2556 53.2856C52.4657 53.1364 52.6257 52.9594 52.7324 52.7615C52.8391 52.5603 52.8925 52.3486 52.8925 52.1195C52.8925 51.8176 52.8291 51.5746 52.7024 51.3872C52.5757 51.1998 52.4057 51.0506 52.1956 50.943C51.9856 50.8354 51.7455 50.7556 51.4788 50.7036C51.2121 50.6515 50.9387 50.6099 50.6619 50.5821C50.3852 50.5543 50.1118 50.5266 49.8451 50.4988C49.5784 50.4745 49.3383 50.4294 49.1282 50.3704C48.9182 50.3079 48.7482 50.2212 48.6215 50.1066C48.4948 49.9921 48.4314 49.8359 48.4314 49.6312C48.4314 49.4646 48.4748 49.3188 48.5615 49.1939C48.6481 49.069 48.7682 48.9718 48.9249 48.8954C49.0782 48.8191 49.2649 48.7636 49.4783 48.7254C49.6917 48.6872 49.9284 48.6699 50.1852 48.6699C50.5319 48.6699 50.8253 48.708 51.0687 48.7809C51.3088 48.8538 51.5121 48.9406 51.6755 49.0447C51.8389 49.1453 51.9656 49.2494 52.0623 49.357C52.159 49.4646 52.2323 49.5479 52.2857 49.6138L52.7358 49.2286C52.6457 49.1002 52.529 48.9718 52.379 48.8399C52.2323 48.708 52.0523 48.59 51.8389 48.4859C51.6288 48.3783 51.3854 48.2916 51.112 48.2256C50.8386 48.1597 50.5352 48.125 50.1985 48.125C49.8518 48.125 49.5317 48.1562 49.2383 48.2187C48.9449 48.2812 48.6915 48.3749 48.4781 48.5033C48.2647 48.6317 48.098 48.7983 47.978 49.003C47.858 49.2078 47.7979 49.4542 47.7979 49.7388C47.7979 50.0095 47.8613 50.2316 47.988 50.4016C48.1147 50.5717 48.2847 50.707 48.4948 50.8042C48.7048 50.9014 48.9449 50.9777 49.2116 51.0228C49.4783 51.068 49.7517 51.1096 50.0285 51.1374C50.3052 51.1686 50.5786 51.1964 50.8453 51.2276C51.112 51.2588 51.3521 51.3039 51.5621 51.3664C51.7722 51.4324 51.9422 51.5226 52.0689 51.6406C52.1956 51.7586 52.259 51.9182 52.259 52.123C52.259 52.3312 52.199 52.5047 52.0789 52.6401C51.9589 52.7789 51.8055 52.8865 51.6222 52.9698C51.4388 53.0531 51.2354 53.1086 51.0154 53.1433C50.7986 53.178 50.5886 53.1954 50.3919 53.1954C50.0085 53.1954 49.6817 53.1572 49.4217 53.0843C49.1583 53.0114 48.9382 52.9177 48.7615 52.8067C48.5848 52.6956 48.4448 52.5741 48.3381 52.4457C48.2314 52.3173 48.1414 52.2028 48.068 52.0987L47.5879 52.5256ZM54.0427 51.3109C54.1227 50.9569 54.2828 50.6758 54.5228 50.4676C54.7629 50.2593 55.093 50.1552 55.5164 50.1552C55.7331 50.1552 55.9265 50.1865 56.0999 50.2489C56.2732 50.3114 56.4233 50.3947 56.55 50.4953C56.6767 50.5994 56.78 50.7209 56.8601 50.8632C56.9401 51.0055 56.9934 51.1547 57.0234 51.3109H54.0427ZM57.0901 52.4874C57.0334 52.5603 56.9667 52.6435 56.8934 52.7303C56.8167 52.8205 56.7234 52.9004 56.61 52.9767C56.4966 53.0531 56.3599 53.1155 56.1932 53.1641C56.0299 53.2127 55.8265 53.237 55.5864 53.237C55.3464 53.237 55.133 53.1988 54.9463 53.119C54.7596 53.0392 54.5962 52.9351 54.4628 52.7997C54.3295 52.6644 54.2228 52.5151 54.1494 52.3451C54.0727 52.175 54.0294 51.998 54.0161 51.8141H57.6369C57.6402 51.4289 57.5869 51.0992 57.4702 50.825C57.3535 50.5509 57.1968 50.3253 56.9967 50.1518C56.7967 49.9748 56.5667 49.8464 56.2999 49.7631C56.0365 49.6798 55.7531 49.6381 55.4597 49.6381C55.1797 49.6381 54.9129 49.6867 54.6662 49.7839C54.4195 49.8811 54.2061 50.0164 54.0261 50.1934C53.846 50.3704 53.7026 50.5856 53.5993 50.8389C53.4959 51.0922 53.4459 51.3699 53.4459 51.6753C53.4459 51.9703 53.4959 52.2479 53.5993 52.5013C53.6993 52.7546 53.8427 52.9767 54.0261 53.1607C54.2094 53.3446 54.4295 53.4903 54.6862 53.5945C54.9429 53.6986 55.2263 53.7506 55.5331 53.7506C55.8465 53.7506 56.1099 53.7229 56.3233 53.6673C56.5333 53.6118 56.7133 53.5389 56.8634 53.4487C57.0101 53.3585 57.1368 53.2613 57.2401 53.1502C57.3435 53.0392 57.4435 52.9316 57.5369 52.8275L57.0901 52.4874ZM62.1713 50.7036C62.1013 50.5786 62.0112 50.4537 61.9079 50.3253C61.8012 50.1969 61.6745 50.0823 61.5211 49.9852C61.3678 49.888 61.1877 49.8047 60.9777 49.7422C60.7676 49.6798 60.5242 49.6451 60.2475 49.6451C59.9608 49.6451 59.6907 49.6902 59.434 49.7769C59.1773 49.8672 58.9539 49.9956 58.7605 50.1656C58.5671 50.3357 58.4171 50.5474 58.3037 50.8077C58.1904 51.0645 58.1337 51.3595 58.1337 51.6892C58.1337 51.9807 58.1837 52.2514 58.2804 52.5047C58.3771 52.7546 58.5204 52.9732 58.7105 53.1607C58.8972 53.3446 59.1239 53.4903 59.3873 53.5979C59.6507 53.7055 59.9474 53.7576 60.2808 53.7576C60.5676 53.7576 60.8176 53.7263 61.0344 53.6673C61.2511 53.6083 61.4378 53.5285 61.5945 53.4244C61.7512 53.3203 61.8879 53.2023 61.9979 53.0704C62.1113 52.9385 62.208 52.7963 62.288 52.647L61.7945 52.359C61.6945 52.536 61.5912 52.6817 61.4811 52.7962C61.3711 52.9108 61.2511 53.001 61.1244 53.0669C60.9977 53.1329 60.8643 53.1815 60.7276 53.2092C60.5909 53.237 60.4442 53.2509 60.2942 53.2509C60.0675 53.2509 59.8574 53.2127 59.664 53.1364C59.4707 53.06 59.3006 52.9559 59.1606 52.8205C59.0206 52.6887 58.9072 52.529 58.8272 52.3451C58.7438 52.1612 58.7038 51.9668 58.7038 51.7516C58.7038 51.4705 58.7472 51.2276 58.8372 51.0263C58.9272 50.825 59.0439 50.6584 59.1906 50.53C59.3373 50.4016 59.5007 50.3079 59.684 50.2489C59.8674 50.1899 60.0541 50.1587 60.2475 50.1587C60.4776 50.1587 60.6743 50.1899 60.8343 50.2524C60.9977 50.3149 61.1344 50.3877 61.2477 50.478C61.3611 50.5682 61.4478 50.6584 61.5145 50.7556C61.5812 50.8528 61.6345 50.9361 61.6778 51.002L62.1713 50.7036ZM66.5956 49.7631H66.0255V52.4666C65.9422 52.5603 65.8455 52.654 65.7388 52.7442C65.6321 52.8344 65.5187 52.9177 65.392 52.9906C65.2687 53.0635 65.1353 53.1259 64.9919 53.1711C64.8486 53.2162 64.6985 53.2405 64.5452 53.2405C64.4485 53.2405 64.3351 53.2301 64.2151 53.2058C64.0917 53.1849 63.9817 53.1364 63.8784 53.06C63.775 52.9871 63.6883 52.8795 63.6216 52.7442C63.5549 52.6088 63.5216 52.4249 63.5283 52.1924V49.7561H62.9581V52.3104C62.9581 52.6401 63.0148 52.9038 63.1315 53.0947C63.2449 53.2856 63.3849 53.4313 63.5483 53.5285C63.7116 53.6257 63.8784 53.6847 64.0517 53.709C64.2251 53.7333 64.3685 53.7472 64.4818 53.7472C64.8119 53.7472 65.102 53.6777 65.3554 53.5389C65.6088 53.4001 65.8355 53.2439 66.0322 53.0635V53.6257H66.6023V49.7631H66.5956ZM67.5659 53.6361H68.136V51.3178C68.1393 51.2866 68.1794 51.2172 68.2527 51.0992C68.3261 50.9812 68.4261 50.8597 68.5494 50.7279C68.6728 50.596 68.8228 50.4814 68.9929 50.3773C69.1629 50.2732 69.3496 50.2212 69.553 50.2212C69.673 50.2212 69.7731 50.2281 69.8464 50.242C69.9198 50.2559 69.9731 50.2663 70.0131 50.2697V49.6694C69.9198 49.6485 69.8064 49.6416 69.6764 49.6416C69.493 49.6416 69.3263 49.6694 69.1729 49.7318C69.0196 49.7908 68.8829 49.8672 68.7562 49.9574C68.6328 50.0476 68.5194 50.1483 68.4194 50.2559C68.3194 50.3635 68.226 50.4676 68.1393 50.5682V49.7596H67.5659V53.6361ZM70.5332 48.9406H71.1867V48.2534H70.5332V48.9406ZM70.5832 53.6361H71.1534V49.7631H70.5832V53.6361ZM74.5008 49.7631H73.0372V48.4755H72.467V49.7631H71.6868V50.2732H72.467V52.6713C72.467 52.7511 72.4737 52.8518 72.4837 52.9698C72.4937 53.0912 72.5404 53.2092 72.6137 53.3238C72.6904 53.4418 72.8071 53.5389 72.9738 53.6222C73.1372 53.7055 73.3706 53.7472 73.6706 53.7472C73.7873 53.7472 73.9207 53.7368 74.0674 53.7159C74.2141 53.6951 74.3908 53.6673 74.5975 53.6326V53.1155C74.4441 53.1502 74.3041 53.178 74.1774 53.1988C74.0541 53.2196 73.924 53.2335 73.7873 53.2335C73.4973 53.2335 73.2972 53.1815 73.1939 53.0774C73.0872 52.9732 73.0338 52.8171 73.0338 52.6019V50.2628H74.4975V49.7631H74.5008ZM75.1176 54.8785C75.2343 54.9167 75.351 54.9479 75.4677 54.9688C75.5844 54.9896 75.7011 55 75.8245 55C75.9878 55 76.1379 54.9757 76.2712 54.9306C76.4046 54.882 76.5246 54.823 76.6313 54.7467C76.738 54.6703 76.8314 54.5801 76.9081 54.4725C76.9881 54.3649 77.0548 54.2538 77.1114 54.1359L79.2653 49.7665H78.6451L77.1381 52.89L75.5611 49.7665H74.9409L76.8347 53.4903C76.7514 53.6777 76.668 53.8339 76.588 53.9554C76.508 54.0769 76.4246 54.1775 76.3413 54.2504C76.2579 54.3233 76.1679 54.3753 76.0779 54.4065C75.9878 54.4378 75.8878 54.4517 75.7778 54.4517C75.6844 54.4517 75.5744 54.4413 75.4477 54.4274C75.321 54.41 75.211 54.3788 75.1176 54.3337V54.8785ZM81.7959 48.9406H82.4493V48.2534H81.7959V48.9406ZM81.8459 53.6361H82.416V49.7631H81.8459V53.6361ZM83.0461 52.8344C83.3229 53.1745 83.6296 53.414 83.9664 53.5493C84.3031 53.6847 84.6765 53.7541 85.09 53.7541C85.3233 53.7541 85.5501 53.7333 85.7668 53.6916C85.9835 53.65 86.1702 53.5806 86.3336 53.4834C86.4936 53.3862 86.6237 53.2613 86.7203 53.1051C86.817 52.949 86.8637 52.7615 86.8637 52.5394C86.8637 52.3312 86.8204 52.1612 86.7337 52.0293C86.647 51.8974 86.5303 51.7898 86.3836 51.7065C86.2369 51.6267 86.0735 51.5642 85.8901 51.5226C85.7068 51.4809 85.5201 51.4462 85.33 51.4185C85.14 51.3907 84.9533 51.3664 84.7699 51.3456C84.5865 51.3248 84.4231 51.2901 84.2764 51.2484C84.1297 51.2068 84.0164 51.1512 83.9297 51.0784C83.843 51.0055 83.7997 50.9083 83.7997 50.7868C83.7997 50.5786 83.8897 50.4224 84.0731 50.3183C84.2564 50.2107 84.5165 50.1587 84.8532 50.1587C85.22 50.1587 85.5234 50.2212 85.7634 50.3496C86.0068 50.478 86.2002 50.6446 86.3503 50.8528L86.737 50.4814C86.6903 50.412 86.6236 50.3287 86.537 50.235C86.4503 50.1379 86.3336 50.0476 86.1869 49.9609C86.0402 49.8741 85.8601 49.8012 85.6434 49.7388C85.4267 49.6763 85.1633 49.6451 84.8566 49.6451C84.6632 49.6451 84.4698 49.6659 84.2764 49.7041C84.0831 49.7422 83.9064 49.8116 83.753 49.9053C83.5996 49.9991 83.4696 50.1205 83.3729 50.2663C83.2729 50.4155 83.2262 50.5994 83.2262 50.8216C83.2262 51.0888 83.3029 51.2901 83.4529 51.4324C83.6029 51.5712 83.793 51.6788 84.0197 51.7482C84.2464 51.8176 84.4932 51.8662 84.7599 51.8939C85.0266 51.9217 85.2733 51.9564 85.5001 51.998C85.7268 52.0397 85.9168 52.1022 86.0669 52.1854C86.2169 52.2687 86.2902 52.4041 86.2902 52.5846C86.2902 52.6991 86.2602 52.7963 86.1969 52.8795C86.1335 52.9628 86.0502 53.0322 85.9435 53.0878C85.8368 53.1433 85.7168 53.1815 85.5734 53.2058C85.4334 53.2301 85.2867 53.2439 85.1366 53.2439C84.7465 53.2439 84.4165 53.1676 84.1431 53.0149C83.8697 52.8622 83.6463 52.6678 83.4662 52.4284L83.0461 52.8344ZM90.7279 53.1294C90.5346 53.0565 90.3712 52.9524 90.2378 52.8171C90.1045 52.6852 90.0011 52.5221 89.9278 52.3312C89.8544 52.1403 89.8177 51.9286 89.8177 51.6996C89.8177 51.5226 89.8477 51.3421 89.9044 51.1582C89.9644 50.9743 90.0545 50.8111 90.1778 50.6619C90.3012 50.5127 90.4612 50.3912 90.6613 50.294C90.858 50.1969 91.0947 50.1483 91.3714 50.1483C91.6482 50.1483 91.8849 50.1969 92.0816 50.294C92.2783 50.3912 92.4383 50.5127 92.565 50.6619C92.6884 50.8111 92.7784 50.9743 92.8351 51.1582C92.8918 51.3421 92.9185 51.5226 92.9185 51.6996C92.9185 51.9321 92.8818 52.1438 92.8118 52.3312C92.7417 52.5221 92.6384 52.6817 92.505 52.8171C92.3717 52.9489 92.2083 53.0531 92.0149 53.1294C91.8215 53.2023 91.6048 53.2405 91.3681 53.2405C91.1347 53.2439 90.9213 53.2058 90.7279 53.1294ZM92.235 53.6118C92.4917 53.5181 92.7151 53.3828 92.9051 53.2023C93.0918 53.0218 93.2385 52.7997 93.3419 52.536C93.4452 52.2722 93.4952 51.9703 93.4952 51.6302C93.4952 51.3525 93.4452 51.0957 93.3485 50.8528C93.2485 50.6099 93.1085 50.4016 92.9218 50.2246C92.7351 50.0476 92.5117 49.9053 92.2516 49.8012C91.9916 49.6971 91.6982 49.6451 91.3748 49.6451C91.0513 49.6451 90.7579 49.6971 90.4945 49.8012C90.2312 49.9053 90.0078 50.0442 89.8244 50.2246C89.641 50.4016 89.4977 50.6133 89.3976 50.8528C89.2976 51.0957 89.2443 51.3525 89.2443 51.6302C89.2443 51.9703 89.2943 52.2722 89.3976 52.536C89.501 52.7997 89.6477 53.0218 89.8344 53.2023C90.0211 53.3828 90.2445 53.5181 90.5079 53.6118C90.7679 53.7055 91.0547 53.7506 91.3714 53.7506C91.6915 53.7541 91.9749 53.7055 92.235 53.6118ZM97.8296 49.7631H97.2595V52.4666C97.1761 52.5603 97.0794 52.654 96.9727 52.7442C96.866 52.8344 96.7527 52.9177 96.626 52.9906C96.5026 53.0635 96.3659 53.1259 96.2259 53.1711C96.0825 53.2162 95.9325 53.2405 95.7791 53.2405C95.6791 53.2405 95.5691 53.2301 95.449 53.2058C95.3257 53.1849 95.2157 53.1364 95.1123 53.06C95.0089 52.9871 94.9223 52.8795 94.8556 52.7442C94.7889 52.6088 94.7555 52.4249 94.7589 52.1924V49.7561H94.1887V52.3104C94.1887 52.6401 94.2454 52.9038 94.3621 53.0947C94.4788 53.2856 94.6155 53.4313 94.7789 53.5285C94.9423 53.6257 95.109 53.6847 95.2823 53.709C95.4557 53.7333 95.5991 53.7472 95.7124 53.7472C96.0425 53.7472 96.3326 53.6777 96.586 53.5389C96.8394 53.4001 97.0661 53.2439 97.2628 53.0635V53.6257H97.8329V49.7631H97.8296ZM98.8032 53.6361H99.3733V51.3178C99.3766 51.2866 99.4166 51.2172 99.49 51.0992C99.5633 50.9812 99.66 50.8597 99.7867 50.7279C99.9101 50.596 100.06 50.4814 100.23 50.3773C100.4 50.2732 100.587 50.2212 100.79 50.2212C100.914 50.2212 101.01 50.2281 101.084 50.242C101.157 50.2559 101.21 50.2663 101.25 50.2697V49.6694C101.157 49.6485 101.044 49.6416 100.914 49.6416C100.73 49.6416 100.564 49.6694 100.41 49.7318C100.257 49.7908 100.12 49.8672 99.9968 49.9574C99.8734 50.0476 99.76 50.1483 99.66 50.2559C99.56 50.3635 99.4666 50.4676 99.3833 50.5682V49.7596H98.8132V53.6361H98.8032Z" fill="#0C2935"/>
<path d="M108.04 23.0794V20.8692H116.376V16.452H108.04V14.2418H112.872H118.46V9.82457H112.872H104.297H102.829V27.4999H105.235H108.04H108.561H113.809H118.463V23.0827H113.809H108.04V23.0794ZM96.5728 27.4999H101.784V21.8183C101.784 20.9513 101.438 20.2156 100.742 19.6081C101.438 19.0005 101.784 18.2648 101.784 17.3978V14.2418C101.784 11.2959 100.393 9.82129 97.6143 9.82129H85.1086V13.759H85.1018V22.1401H85.1086V27.4966H90.3199V21.815H95.0104C96.052 21.815 96.5728 22.2354 96.5728 23.0761V27.4999ZM96.5728 16.1367C96.5728 16.9774 96.052 17.3978 95.0104 17.3978H90.3064V14.2418H95.0104C96.052 14.2418 96.5728 14.6621 96.5728 15.5029V16.1367ZM84.067 23.0827V9.82457H78.8557V21.8183C78.8557 22.6098 78.3886 23.0236 77.4647 23.0728H72.9556C72.0316 23.0268 71.5646 22.613 71.5646 21.8183V9.82457H66.3533V23.0827C66.3533 26.0286 67.7443 27.4999 70.523 27.4999H70.7548H74.9514H75.4722H79.3294H79.904C82.6793 27.4999 84.067 26.0286 84.067 23.0827ZM65.3083 23.0827V21.503C65.3083 18.7673 63.5712 17.296 60.097 17.0825L56.4481 16.7673L53.32 16.452C52.9739 16.452 52.7992 16.1367 52.7992 15.5061C52.7992 14.6654 53.32 14.245 54.3616 14.245H56.186V9.82457H51.7576C48.9789 10.2449 47.5879 11.7195 47.5879 14.245V16.14C47.5879 18.6655 49.325 20.0317 52.7992 20.2419L56.4481 20.5572L59.3142 20.8724C59.8349 20.8724 60.097 21.1877 60.097 21.8183C60.097 22.659 59.5762 23.0794 58.5346 23.0794H56.7102V27.4966H61.1386C63.9173 27.4999 65.3083 26.0286 65.3083 23.0827ZM60.097 15.5061H65.3083V14.245C65.3083 11.2992 63.9173 9.82457 61.1386 9.82457H56.7102V14.245H58.5346C59.5762 14.245 60.097 14.6654 60.097 15.5061ZM52.8025 21.8183H47.5912V23.0794C47.5912 26.0253 48.9823 27.4966 51.761 27.4966H56.1894V23.0827H54.3649C53.3233 23.0827 52.8025 22.659 52.8025 21.8183Z" fill="#0876E0"/>
<path d="M2.14653 1.96436H42.7135L43.5379 29.8819L37.7705 41.377L28.2984 50.41L22.3728 52.0536L7.70531 44.6642L2.14653 32.9611L2.02539 21.6707L2.14653 1.96436Z" fill="#0C2935"/>
<path d="M35.4375 26.6948C35.4375 22.7417 32.9553 20.6159 27.991 20.3108L22.7813 19.8532L18.3147 19.3988C17.8169 19.3988 17.5715 18.9445 17.5715 18.0292C17.5715 16.8121 18.3147 16.2052 19.8047 16.2052H22.4096V9.82129H16.0815C12.1094 10.4282 10.125 12.5573 10.125 16.2052V18.9412C10.125 22.5891 12.6072 24.5657 17.568 24.8708L22.7778 25.3251L26.8727 25.7795C27.616 25.7795 27.9876 26.2371 27.9876 27.1491C27.9876 28.3662 27.2444 28.9731 25.7544 28.9731H23.1495V35.357H29.4776C33.4463 35.357 35.4341 33.2279 35.4341 28.9731V26.6948H35.4375Z" fill="#0876E0"/>
<path d="M3.61803 31.1157L10.5283 35.6017C17.6116 40.1879 31.276 41.1418 34.8567 31.8995C33.197 38.2033 27.3762 41.7488 20.8834 41.7488C16.4916 41.7488 12.5274 40.3346 8.9195 37.9965L5.47457 35.8085C8.90253 42.5193 15.2935 48.3929 22.2716 50.0239C31.8767 47.7825 40.372 37.5029 41.5531 28.0605V14.6022L34.9924 10.2129C28.408 4.99638 14.2447 4.25927 10.664 13.4315C12.3237 7.16104 18.1445 3.72894 24.6372 3.85902C29.0291 3.94574 32.9933 5.43999 36.6012 7.84813L41.5531 11.0901V2.93846H2.99014V28.0605C3.11911 29.0744 3.32954 30.095 3.61803 31.1157ZM0 0H22.275H44.55V28.2372C43.301 38.9538 33.6654 50.781 22.275 53.0357C10.8846 50.7777 1.2524 38.9505 0 28.2372V0Z" fill="#3F4042"/>
<path d="M23.2871 16.6963H25.8642C27.3382 16.6963 28.0736 17.3499 28.0736 18.6606H35.4371V16.6963C35.4371 12.1141 33.2918 9.82129 29.3621 9.82129H23.2871V16.6963Z" fill="#ACACAC"/>
<path d="M22.2716 28.4824H19.6953C18.2216 28.4824 17.4865 27.8288 17.4865 26.5181H10.125V28.4824C10.125 32.7792 12.0876 35.3574 16.0162 35.3574H22.275V28.4824H22.2716Z" fill="#ACACAC"/>
</svg>
